<svg xmlns="http://www.w3.org/2000/svg" xmlns:xlink="http://www.w3.org/1999/xlink" id="Layer_1" x="0px" y="0px" viewBox="0 0 512 256" style="enable-background:new 0 0 512 256;" xml:space="preserve"><style type="text/css">	.st0{fill:url(#_x30_4.Twitter_00000055691544010276439630000003780858847199096476_);}	.st1{fill:url(#Icon_00000124152147210294037150000015024623849299231661_);}	.st2{fill:url(#SVGID_1_);}	.st3{fill:url(#SVGID_00000036973961613878945210000006474216892943423368_);}	.st4{fill:url(#SVGID_00000026861347735716134460000016591957996159309499_);}	.st5{fill:url(#SVGID_00000171706001585842064210000003485893916296250043_);}	.st6{fill:url(#SVGID_00000134933882211328385600000015720407161117869755_);}	.st7{fill:url(#SVGID_00000149344049479868064720000015530651967037207224_);}</style><g xmlns:svgjs="http://svgjs.com/svgjs" id="Layer_1_00000044858978700011021450000000834493834114717090_"></g><g>	<g>		<g id="Menu_1_">			<linearGradient id="SVGID_1_" gradientUnits="userSpaceOnUse" x1="0" y1="15.9996" x2="511.9987" y2="15.9996">				<stop offset="0" style="stop-color:#FF5042"></stop>				<stop offset="1" style="stop-color:#F31E7D"></stop>			</linearGradient>			<path class="st2" d="M16,32h480c8.8,0,16-7.2,16-16c0-8.8-7.2-16-16-16H16C7.2,0,0,7.2,0,16S7.2,32,16,32z"></path>							<linearGradient id="SVGID_00000180332042096957187430000013307063165672570264_" gradientUnits="userSpaceOnUse" x1="0" y1="127.9993" x2="511.9987" y2="127.9993">				<stop offset="0" style="stop-color:#FF5042"></stop>				<stop offset="1" style="stop-color:#F31E7D"></stop>			</linearGradient>			<path style="fill:url(#SVGID_00000180332042096957187430000013307063165672570264_);" d="M496,112H16c-8.8,0-16,7.2-16,16    s7.2,16,16,16h480c8.8,0,16-7.2,16-16S504.8,112,496,112z"></path>							<linearGradient id="SVGID_00000133497075635718301340000001831601229452900736_" gradientUnits="userSpaceOnUse" x1="159.9998" y1="239.9991" x2="511.9987" y2="239.9991">				<stop offset="0" style="stop-color:#FF5042"></stop>				<stop offset="1" style="stop-color:#F31E7D"></stop>			</linearGradient>			<path style="fill:url(#SVGID_00000133497075635718301340000001831601229452900736_);" d="M496,224H176c-8.8,0-16,7.2-16,16    c0,8.8,7.2,16,16,16h320c8.8,0,16-7.2,16-16C512,231.2,504.8,224,496,224z"></path>		</g>	</g></g></svg>