<svg xmlns="http://www.w3.org/2000/svg" xmlns:xlink="http://www.w3.org/1999/xlink" id="Layer_1" x="0px" y="0px" viewBox="0 0 512 515" style="enable-background:new 0 0 512 515;" xml:space="preserve"><style type="text/css">	.st0{fill:url(#_x30_4.Twitter_00000067952870772712367180000008190006610261576354_);}	.st1{fill:url(#Icon_00000091706969638427861560000015641416144309067420_);}	.st2{fill:url(#SVGID_1_);}	.st3{fill:url(#SVGID_00000021084929867880894450000015578925236858955447_);}	.st4{fill:url(#SVGID_00000050643854220785422640000008941254019026443690_);}	.st5{fill:url(#SVGID_00000116236110744062247760000004686560272502496150_);}	.st6{fill:url(#SVGID_00000016774159481482214910000017887632809516526481_);}	.st7{fill:url(#SVGID_00000171678642281840134630000015745779693485675445_);}	.st8{fill:url(#SVGID_00000173868760051425050850000009831144705688294834_);}</style><g>	<g>		<g>			<linearGradient id="SVGID_1_" gradientUnits="userSpaceOnUse" x1="0.9979" y1="258.9998" x2="512.9995" y2="258.9998">				<stop offset="0" style="stop-color:#FF5042"></stop>				<stop offset="1" style="stop-color:#F31E7D"></stop>			</linearGradient>			<path class="st2" d="M285.3,259L507.1,37.1c7.8-7.8,7.8-20.5,0-28.3c-7.8-7.8-20.5-7.8-28.3,0L257,230.7L35.1,8.9    C27.3,1,14.7,1,6.9,8.9s-7.8,20.5,0,28.3L228.7,259L6.9,480.9c-7.8,7.8-7.8,20.5,0,28.3c3.9,3.9,9,5.9,14.1,5.9s10.2-2,14.1-5.9    L257,287.3l221.9,221.9c3.9,3.9,9,5.9,14.1,5.9s10.2-2,14.1-5.9c7.8-7.8,7.8-20.5,0-28.3L285.3,259z"></path>		</g>	</g></g></svg>